<svg width="128" height="128" viewBox="0 0 128 128" fill="none" xmlns="http://www.w3.org/2000/svg">
  <defs>
    <linearGradient id="bg" x1="16" y1="14" x2="116" y2="118" gradientUnits="userSpaceOnUse">
      <stop stop-color="#1FF0A0"/>
      <stop offset="0.52" stop-color="#32CD79"/>
      <stop offset="1" stop-color="#0D8F5F"/>
    </linearGradient>
    <linearGradient id="ink" x1="24" y1="40" x2="104" y2="92" gradientUnits="userSpaceOnUse">
      <stop stop-color="#FFFFFF"/>
      <stop offset="1" stop-color="#E7FFF4"/>
    </linearGradient>
    <filter id="shadow" x="12" y="12" width="104" height="104" color-interpolation-filters="sRGB" filterUnits="userSpaceOnUse">
      <feDropShadow dx="0" dy="6" stdDeviation="8" flood-color="#064E3B" flood-opacity="0.22"/>
    </filter>
  </defs>

  <rect width="128" height="128" rx="30" fill="#E9FFF5"/>
  <rect x="12" y="12" width="104" height="104" rx="26" fill="url(#bg)" filter="url(#shadow)"/>

  <path
    d="M31 72C35.5 54.5 47 44.5 58.5 48.5C65.5 51 65 59.5 58 62C48.5 65.5 43 57.5 49.5 50.5C58 41.5 76 43.5 84 55.5C94.5 71.5 80 94 58 90C47 88 42.5 80 47 72.5C53 62.5 68.5 65 72 77C75 87.5 85 89.5 97 77"
    stroke="url(#ink)"
    stroke-width="8"
    stroke-linecap="round"
    stroke-linejoin="round"
  />
  <path
    d="M82 43C85.5 36.5 91.5 32 99 31"
    stroke="#D8FFEC"
    stroke-width="5"
    stroke-linecap="round"
  />
  <path
    d="M28 92C44 101 75 103 100 88"
    stroke="#0A5F43"
    stroke-width="5"
    stroke-linecap="round"
    opacity="0.32"
  />
  <text
    x="64"
    y="112"
    fill="#EFFFF7"
    font-family="Inter, Avenir, Helvetica, Arial, sans-serif"
    font-size="12"
    font-weight="700"
    letter-spacing="1.8"
    text-anchor="middle"
  >CHENYOMI</text>
</svg>
